<?xml version="1.0" encoding="UTF-8" standalone="no" ?>
<!DOCTYPE svg PUBLIC "-//W3C//DTD SVG 1.1//EN" "http://www.w3.org/Graphics/SVG/1.1/DTD/svg11.dtd">
<svg xmlns="http://www.w3.org/2000/svg" xmlns:xlink="http://www.w3.org/1999/xlink" version="1.1" width="1080" height="1080" viewBox="0 0 1080 1080" xml:space="preserve">
<desc>Created with Fabric.js 5.2.4</desc>
<defs>
</defs>
<g transform="matrix(1 0 0 1 540 540)" id="4efcb71e-e4f9-4264-9876-47f46070992e"  >
</g>
<g transform="matrix(1 0 0 1 540 540)" id="f4d9cca0-9f66-47a0-a6a6-c5d24155783f"  >
<rect style="stroke: none; stroke-width: 1; stroke-dasharray: none; stroke-linecap: butt; stroke-dashoffset: 0; stroke-linejoin: miter; stroke-miterlimit: 4; fill: rgb(255,255,255); fill-rule: nonzero; opacity: 1; visibility: hidden;" vector-effect="non-scaling-stroke"  x="-540" y="-540" rx="0" ry="0" width="1080" height="1080" />
</g>
<g transform="matrix(1 0 0 1 540 540)"  >
<path style="stroke: none; stroke-width: 1; stroke-dasharray: none; stroke-linecap: butt; stroke-dashoffset: 0; stroke-linejoin: miter; stroke-miterlimit: 4; fill: rgb(235,247,255); fill-rule: nonzero; opacity: 1;" vector-effect="non-scaling-stroke"  transform=" translate(-256, -256)" d="M 355.966 512 L 73.84199999999998 512 L 73.84199999999998 0 L 438.15799999999996 0 L 438.15799999999996 429.807 z" stroke-linecap="round" />
</g>
<g transform="matrix(1 0 0 1 701.55 519.48)"  >
<path style="stroke: none; stroke-width: 1; stroke-dasharray: none; stroke-linecap: butt; stroke-dashoffset: 0; stroke-linejoin: miter; stroke-miterlimit: 4; fill: rgb(217,237,250); fill-rule: nonzero; opacity: 1;" vector-effect="non-scaling-stroke"  transform=" translate(-417.55, -235.48)" d="M 396.951 0 L 396.951 429.807 L 397.007 470.959 L 438.158 429.807 L 438.158 0 z" stroke-linecap="round" />
</g>
<g transform="matrix(1 0 0 1 681.07 754.91)"  >
<path style="stroke: none; stroke-width: 1; stroke-dasharray: none; stroke-linecap: butt; stroke-dashoffset: 0; stroke-linejoin: miter; stroke-miterlimit: 4; fill: rgb(181,200,255); fill-rule: nonzero; opacity: 1;" vector-effect="non-scaling-stroke"  transform=" translate(-397.06, -470.9)" d="M 355.966 512 L 355.966 429.807 L 438.158 429.807 z" stroke-linecap="round" />
</g>
<g transform="matrix(1 0 0 1 540 379.81)"  >
<path style="stroke: none; stroke-width: 1; stroke-dasharray: none; stroke-linecap: butt; stroke-dashoffset: 0; stroke-linejoin: miter; stroke-miterlimit: 4; fill: rgb(255,202,33); fill-rule: nonzero; opacity: 1;" vector-effect="non-scaling-stroke"  transform=" translate(-256, -95.81)" d="M 438.158 126.053 L 256 191.622 L 73.84200000000001 126.05300000000001 L 73.84200000000001 1.4210854715202004e-14 L 438.158 1.4210854715202004e-14 z" stroke-linecap="round" />
</g>
<g transform="matrix(1 0 0 1 701.55 354.44)"  >
<path style="stroke: none; stroke-width: 1; stroke-dasharray: none; stroke-linecap: butt; stroke-dashoffset: 0; stroke-linejoin: miter; stroke-miterlimit: 4; fill: rgb(242,187,12); fill-rule: nonzero; opacity: 1;" vector-effect="non-scaling-stroke"  transform=" translate(-417.55, -70.44)" d="M 396.951 0 L 396.951 140.886 L 438.158 126.053 L 438.158 0 z" stroke-linecap="round" />
</g>
<g transform="matrix(1 0 0 1 423.98 535.01)"  >
<circle style="stroke: none; stroke-width: 1; stroke-dasharray: none; stroke-linecap: butt; stroke-dashoffset: 0; stroke-linejoin: miter; stroke-miterlimit: 4; fill: rgb(255,202,33); fill-rule: nonzero; opacity: 1;" vector-effect="non-scaling-stroke"  cx="0" cy="0" r="14.227" />
</g>
<g transform="matrix(1 0 0 1 423.98 597.34)"  >
<circle style="stroke: none; stroke-width: 1; stroke-dasharray: none; stroke-linecap: butt; stroke-dashoffset: 0; stroke-linejoin: miter; stroke-miterlimit: 4; fill: rgb(255,202,33); fill-rule: nonzero; opacity: 1;" vector-effect="non-scaling-stroke"  cx="0" cy="0" r="14.227" />
</g>
<g transform="matrix(1 0 0 1 423.98 659.67)"  >
<circle style="stroke: none; stroke-width: 1; stroke-dasharray: none; stroke-linecap: butt; stroke-dashoffset: 0; stroke-linejoin: miter; stroke-miterlimit: 4; fill: rgb(255,202,33); fill-rule: nonzero; opacity: 1;" vector-effect="non-scaling-stroke"  cx="0" cy="0" r="14.227" />
</g>
<g transform="matrix(1 0 0 1 423.98 722.01)"  >
<circle style="stroke: none; stroke-width: 1; stroke-dasharray: none; stroke-linecap: butt; stroke-dashoffset: 0; stroke-linejoin: miter; stroke-miterlimit: 4; fill: rgb(255,202,33); fill-rule: nonzero; opacity: 1;" vector-effect="non-scaling-stroke"  cx="0" cy="0" r="14.227" />
</g>
<g transform="matrix(1 0 0 1 568.74 534.4)"  >
<path style="stroke: none; stroke-width: 1; stroke-dasharray: none; stroke-linecap: butt; stroke-dashoffset: 0; stroke-linejoin: miter; stroke-miterlimit: 4; fill: rgb(181,200,255); fill-rule: nonzero; opacity: 1;" vector-effect="non-scaling-stroke"  transform=" translate(-284.74, -250.39)" d="M 185.646 258.119 L 383.82899999999995 258.119 C 388.0969999999999 258.119 391.55499999999995 254.66000000000003 391.55499999999995 250.39300000000003 C 391.55499999999995 246.12600000000003 388.09599999999995 242.66700000000003 383.82899999999995 242.66700000000003 L 185.64599999999996 242.66700000000003 C 181.37799999999996 242.66700000000003 177.91999999999996 246.12600000000003 177.91999999999996 250.39300000000003 C 177.91999999999996 254.66000000000003 181.37799999999996 258.119 185.64599999999996 258.119 z" stroke-linecap="round" />
</g>
<g transform="matrix(1 0 0 1 568.74 596.73)"  >
<path style="stroke: none; stroke-width: 1; stroke-dasharray: none; stroke-linecap: butt; stroke-dashoffset: 0; stroke-linejoin: miter; stroke-miterlimit: 4; fill: rgb(181,200,255); fill-rule: nonzero; opacity: 1;" vector-effect="non-scaling-stroke"  transform=" translate(-284.74, -312.73)" d="M 383.829 305 L 185.64600000000002 305 C 181.37800000000001 305 177.92000000000002 308.459 177.92000000000002 312.726 C 177.92000000000002 316.993 181.37900000000002 320.452 185.64600000000002 320.452 L 383.829 320.452 C 388.097 320.452 391.555 316.993 391.555 312.726 C 391.555 308.459 388.097 305 383.829 305 z" stroke-linecap="round" />
</g>
<g transform="matrix(1 0 0 1 568.74 659.06)"  >
<path style="stroke: none; stroke-width: 1; stroke-dasharray: none; stroke-linecap: butt; stroke-dashoffset: 0; stroke-linejoin: miter; stroke-miterlimit: 4; fill: rgb(181,200,255); fill-rule: nonzero; opacity: 1;" vector-effect="non-scaling-stroke"  transform=" translate(-284.74, -375.06)" d="M 383.829 367.334 L 185.64600000000002 367.334 C 181.37800000000001 367.334 177.92000000000002 370.793 177.92000000000002 375.06 C 177.92000000000002 379.327 181.37900000000002 382.786 185.64600000000002 382.786 L 383.829 382.786 C 388.097 382.786 391.555 379.327 391.555 375.06 C 391.555 370.793 388.097 367.334 383.829 367.334 z" stroke-linecap="round" />
</g>
<g transform="matrix(1 0 0 1 531.61 721.4)"  >
<path style="stroke: none; stroke-width: 1; stroke-dasharray: none; stroke-linecap: butt; stroke-dashoffset: 0; stroke-linejoin: miter; stroke-miterlimit: 4; fill: rgb(181,200,255); fill-rule: nonzero; opacity: 1;" vector-effect="non-scaling-stroke"  transform=" translate(-247.61, -437.39)" d="M 309.569 429.668 L 185.64600000000002 429.668 C 181.37800000000001 429.668 177.92000000000002 433.127 177.92000000000002 437.394 C 177.92000000000002 441.661 181.37900000000002 445.12 185.64600000000002 445.12 L 309.57000000000005 445.12 C 313.838 445.12 317.29600000000005 441.661 317.29600000000005 437.394 C 317.29600000000005 433.127 313.83700000000005 429.668 309.5690000000001 429.668 z" stroke-linecap="round" />
</g>
<g transform="matrix(1 0 0 1 540.26 352.97)" style="" id="6636e724-17f5-4279-b72d-e81790ec1775"  >
		<text xml:space="preserve" font-family="Raleway" font-size="105" font-style="normal" font-weight="900" style="stroke: none; stroke-width: 1; stroke-dasharray: none; stroke-linecap: butt; stroke-dashoffset: 0; stroke-linejoin: miter; stroke-miterlimit: 4; fill: rgb(255,255,255); fill-rule: nonzero; opacity: 1; white-space: pre;" ><tspan x="-125.63" y="32.98" >2023</tspan></text>
</g>
</svg>